<?xml version="1.0" encoding="UTF-8"?>
<svg width="32px" height="32px" viewBox="0 0 32 32" version="1.1" xmlns="http://www.w3.org/2000/svg" xmlns:xlink="http://www.w3.org/1999/xlink">
    <title>4-Arrow Right</title>
    <defs></defs>
    <g stroke="none" stroke-width="1" fill="none" fill-rule="evenodd">
        <g id="arrowRightFill" transform="translate(-1355.000000, -998.000000)" fill="#000000" fill-rule="nonzero">
            <g transform="translate(1355.000000, 998.000000)">
                <path d="M16,32 C7.163444,32 1.082166e-15,24.836556 0,16 C-1.082166e-15,7.163444 7.163444,1.623249e-15 16,0 C24.836556,-1.623249e-15 32,7.163444 32,16 C32,20.2434638 30.3142906,24.3131264 27.3137085,27.3137085 C24.3131264,30.3142906 20.2434638,32 16,32 Z M16,2 C8.2680135,2 2,8.2680135 2,16 C2,23.7319865 8.2680135,30 16,30 C23.7319865,30 30,23.7319865 30,16 C30,12.2869691 28.5250042,8.72601436 25.8994949,6.10050506 C23.2739856,3.47499577 19.7130309,2 16,2 Z" id="arrowRightShape"></path>
                <path d="M13.71,23.71 L12.3,22.3 L18.59,16 L12.29,9.71 L13.7,8.3 L20.7,15.3 C21.0877236,15.6900375 21.0877236,16.3199625 20.7,16.71 L13.71,23.71 Z" id="Shape"></path>
            </g>
        </g>
    </g>
</svg>