<svg width="32px" height="24px" viewBox="0 0 32 24" version="1.1" xmlns="http://www.w3.org/2000/svg" xmlns:xlink="http://www.w3.org/1999/xlink">
    <defs></defs>
    <g id="Icons" stroke="none" stroke-width="1" fill="none" fill-rule="evenodd">
        <path d="M32,0.9 C32,0.8 32,0.8 32,0.7 C32,0.6 31.9,0.6 31.9,0.5 C31.9,0.5 31.9,0.4 31.8,0.4 C31.8,0.4 31.8,0.4 31.8,0.4 C31.7,0.3 31.7,0.3 31.6,0.3 C31.6,0.3 31.5,0.2 31.5,0.2 C31.4,0.2 31.4,0.2 31.3,0.2 C31.2,0.2 31.2,0.2 31.1,0.2 C31.1,0.2 31.1,0.2 31.1,0.2 L1.1,0.2 C1.1,0.2 1.1,0.2 1.1,0.2 C1,0.2 1,0.2 0.9,0.2 C0.8,0.2 0.8,0.2 0.7,0.2 C0.6,0.2 0.6,0.3 0.6,0.3 C0.5,0.3 0.5,0.4 0.4,0.4 C0.4,0.4 0.4,0.4 0.4,0.4 C0.4,0.4 0.4,0.5 0.3,0.5 C0.3,0.6 0.2,0.6 0.2,0.7 C0.2,0.8 0.2,0.8 0.2,0.9 C0.2,0.9 0.2,1 0.2,1 L0.2,23 C0.2,23.1 0.2,23.1 0.2,23.1 C0.2,23.2 0.2,23.2 0.2,23.3 C0.2,23.4 0.3,23.4 0.3,23.5 C0.3,23.5 0.3,23.6 0.4,23.6 C0.4,23.6 0.4,23.6 0.4,23.6 C0.5,23.7 0.6,23.8 0.7,23.8 C0.7,23.8 0.7,23.8 0.7,23.8 C0.8,23.9 1,23.9 1.1,23.9 L31.1,23.9 C31.2,23.9 31.4,23.9 31.5,23.8 C31.5,23.8 31.5,23.8 31.5,23.8 C31.6,23.7 31.7,23.7 31.8,23.6 C31.8,23.6 31.8,23.6 31.8,23.6 C31.8,23.6 31.8,23.5 31.9,23.5 C31.9,23.4 32,23.4 32,23.3 C32,23.2 32,23.2 32,23.1 C32,23.1 32,23 32,23 L32,1 C32,1 32,0.9 32,0.9 Z M2,3.2 L11.8,11.7 L2,20.7 L2,3.2 Z M15.3,14.8 C15.5,15 15.7,15 16,15 C16.3,15 16.5,14.9 16.7,14.8 L18.7,13 L24.1,18 L7.9,18 L13.3,13 L15.3,14.8 Z M16,12.7 L3.7,2 L28.3,2 L16,12.7 Z M5.7,20 L26.3,20 L28.5,22 L3.6,22 L5.7,20 Z M20.2,11.7 L30,3.2 L30,20.7 L20.2,11.7 Z" id="Shape" fill="#005CDD" fill-rule="nonzero"></path>
    </g>
</svg>