<svg width="32px" height="32px" viewBox="0 0 32 32" version="1.1" xmlns="http://www.w3.org/2000/svg" xmlns:xlink="http://www.w3.org/1999/xlink">
    <defs></defs>
    <g id="Icons" stroke="none" stroke-width="1" fill="none" fill-rule="evenodd">
        <g id="icon/fullstack" fill="#005CDD" fill-rule="nonzero">
            <path d="M20,16 C20,13.8 18.2,12 16,12 C13.8,12 12,13.8 12,16 C12,18.2 13.8,20 16,20 C18.2,20 20,18.2 20,16 Z M14,16 C14,14.9 14.9,14 16,14 C17.1,14 18,14.9 18,16 C18,17.1 17.1,18 16,18 C14.9,18 14,17.1 14,16 Z" id="Shape"></path>
            <path d="M31.4,13.1 L27.2,11.4 L29,7.2 C29.2,6.8 29.1,6.4 28.8,6.1 L26,3.3 C25.7,3 25.3,2.9 24.9,3.1 L20.7,4.9 L19,0.7 C18.8,0.3 18.5,0.1 18.1,0.1 L14.1,0.1 C13.7,0.1 13.3,0.3 13.2,0.7 L11.5,4.9 L7.3,3.1 C6.9,2.9 6.5,3 6.2,3.3 L3.4,6.1 C3.1,6.4 3,6.8 3.2,7.2 L5,11.4 L0.8,13.1 C0.4,13.3 0.2,13.6 0.2,14 L0.2,18 C0.2,18.4 0.4,18.8 0.8,18.9 L5,20.6 L3.2,24.8 C3,25.2 3.1,25.6 3.4,25.9 L6.2,28.7 C6.5,29 6.9,29.1 7.3,28.9 L11.5,27.1 L13.2,31.3 C13.4,31.7 13.7,31.9 14.1,31.9 L18.1,31.9 C18.5,31.9 18.9,31.7 19,31.3 L20.7,27.1 L24.9,28.9 C25.3,29.1 25.7,29 26,28.7 L28.8,25.9 C29.1,25.6 29.2,25.2 29,24.8 L27.2,20.6 L31.4,18.9 C31.8,18.7 32,18.4 32,18 L32,14 C32,13.6 31.8,13.2 31.4,13.1 Z M30,17.3 L25.6,19 C25.4,19.1 25.2,19.3 25,19.5 L24.9,19.7 C24.8,19.9 24.8,20.2 24.9,20.5 L26.8,24.8 L24.9,26.7 L20.6,24.8 C20.4,24.7 20.1,24.7 19.8,24.8 L19.6,24.9 C19.4,25 19.2,25.2 19.1,25.5 L17.4,29.9 L14.8,29.9 L13.1,25.5 C13,25.3 12.8,25.1 12.6,24.9 L12.4,24.8 C12.2,24.7 11.9,24.7 11.6,24.8 L7.3,26.7 L5.4,24.8 L7.3,20.5 C7.4,20.3 7.4,20 7.3,19.7 L7.2,19.5 C7.1,19.3 6.9,19.1 6.6,19 L2.2,17.3 L2.2,14.7 L6.6,13 C6.8,12.9 7,12.7 7.2,12.5 L7.3,12.3 C7.4,12.1 7.4,11.8 7.3,11.5 L5.4,7.2 L7.3,5.3 L11.6,7.2 C11.8,7.3 12.1,7.3 12.4,7.2 L12.6,7.1 C12.8,7 13,6.8 13.1,6.5 L14.8,2.1 L17.4,2.1 L19.1,6.5 C19.2,6.8 19.4,7 19.6,7.1 L19.8,7.2 C20,7.3 20.3,7.3 20.6,7.2 L24.9,5.3 L26.8,7.2 L24.9,11.5 C24.8,11.7 24.8,12 24.9,12.3 L25,12.5 C25.1,12.7 25.3,12.9 25.6,13 L30,14.7 L30,17.3 Z" id="Shape"></path>
            <path d="M23,15 C22.4,15 22,15.4 22,16 C22,19.3 19.3,22 16,22 C15.4,22 15,22.4 15,23 C15,23.6 15.4,24 16,24 C20.4,24 24,20.4 24,16 C24,15.4 23.6,15 23,15 Z" id="Shape"></path>
            <path d="M17,9 C17,8.4 16.6,8 16,8 C11.6,8 8,11.6 8,16 C8,16.6 8.4,17 9,17 C9.6,17 10,16.6 10,16 C10,12.7 12.7,10 16,10 C16.6,10 17,9.6 17,9 Z" id="Shape"></path>
        </g>
    </g>
</svg>