<svg width="32px" height="33px" viewBox="0 0 32 33" version="1.1" xmlns="http://www.w3.org/2000/svg" xmlns:xlink="http://www.w3.org/1999/xlink">
    <defs></defs>
    <g id="Icons" stroke="none" stroke-width="1" fill="none" fill-rule="evenodd">
        <g id="icons/influencer" fill-rule="nonzero">
            <path d="M28,11.1 C27.5,4.9 22.4,0 16,0 C9.6,0 4.5,4.9 4,11.1 C1.7,11.5 0,13.6 0,16 C0,18.2 1.4,20 3.4,20.7 L0.1,30.7 C-0.1,31.2 0.2,31.8 0.7,32 C0.8,32 0.9,32.1 1,32.1 C1.4,32.1 1.8,31.8 1.9,31.4 L5.3,21.1 L9.2,21.1 L7,27.8 C6.8,28.3 7.1,28.9 7.6,29.1 C7.7,29.1 7.8,29.2 7.9,29.2 C8.3,29.2 8.7,28.9 8.8,28.5 L11.2,21.2 L15,21.2 L15,24.2 C15,24.8 15.4,25.2 16,25.2 C16.6,25.2 17,24.8 17,24.2 L17,21.2 L20.6,21.2 L23,28.5 C23.1,28.9 23.5,29.2 23.9,29.2 C24,29.2 24.1,29.2 24.2,29.1 C24.7,28.9 25,28.4 24.8,27.8 L22.6,21.1 L26.5,21.1 L29.9,31.4 C30,31.8 30.4,32.1 30.8,32.1 C30.9,32.1 31,32.1 31.1,32 C31.6,31.8 31.9,31.3 31.7,30.7 L28.4,20.7 C30.4,20 31.8,18.2 31.8,16 C32,13.6 30.3,11.5 28,11.1 Z M25.9,11 L6.1,11 C6.2,10.3 6.3,9.6 6.5,9 L25.6,9 C25.7,9.6 25.9,10.3 25.9,11 Z M16,2 C19.7,2 22.9,4 24.6,7 L7.4,7 C9.1,4 12.3,2 16,2 Z M27,19 L21.4,19 C21.4,19 21.4,19 21.4,19 L5,19 C3.3,19 2,17.7 2,16 C2,14.3 3.3,13 5,13 L27,13 C28.7,13 30,14.3 30,16 C30,17.7 28.7,19 27,19 Z" id="Shape" fill="#005CDD"></path>
            <rect id="Rectangle-path" fill="#005CDD" x="5" y="15" width="5" height="2"></rect>
            <rect id="Rectangle-path" fill="#005CDD" x="13.5" y="15" width="5" height="2"></rect>
            <rect id="Rectangle-path" x="22" y="15" width="5" height="2"></rect>
        </g>
    </g>
</svg>