<svg width="32px" height="32px" viewBox="0 0 32 32" version="1.1" xmlns="http://www.w3.org/2000/svg" xmlns:xlink="http://www.w3.org/1999/xlink">
    <defs></defs>
    <g id="Icons" stroke="none" stroke-width="1" fill="none" fill-rule="evenodd">
        <g id="icon/ux" fill="#005CDD" fill-rule="nonzero">
            <path d="M32,16 C32,7.2 24.8,0 16,0 C13.2,0 10.5,0.7 8.1,2.1 C7.2,1.4 6.2,1 5,1 C2.2,1 0,3.2 0,6 C0,7.4 0.5,8.6 1.4,9.5 C0.5,11.6 0,13.7 0,16 C0,24.8 7.2,32 16,32 C18.8,32 21.5,31.3 23.9,29.9 C24.8,30.6 25.8,31 27,31 C29.8,31 32,28.8 32,26 C32,24.6 31.5,23.4 30.6,22.5 C31.5,20.5 32,18.3 32,16 Z M5,3 C6.7,3 8,4.3 8,6 C8,7.7 6.7,9 5,9 C3.3,9 2,7.7 2,6 C2,4.3 3.3,3 5,3 Z M2,16 C2,14.1 2.4,12.3 3.1,10.6 C3.7,10.8 4.3,11 5,11 C7.8,11 10,8.8 10,6 C10,5.1 9.8,4.4 9.4,3.7 C11.4,2.6 13.7,2 16,2 C23.7,2 30,8.3 30,16 C30,17.9 29.6,19.7 28.9,21.4 C28.3,21.2 27.7,21 27,21 C24.2,21 22,23.2 22,26 C22,26.9 22.2,27.6 22.6,28.3 C20.6,29.4 18.3,30 16,30 C8.3,30 2,23.7 2,16 Z M27,29 C25.3,29 24,27.7 24,26 C24,24.3 25.3,23 27,23 C28.7,23 30,24.3 30,26 C30,27.7 28.7,29 27,29 Z" id="Shape"></path>
            <path d="M16,8 C11.6,8 8,11.6 8,16 C8,20.4 11.6,24 16,24 C20.4,24 24,20.4 24,16 C24,11.6 20.4,8 16,8 Z M13,21.2 L13,21 C13,19.3 14.3,18 16,18 C17.7,18 19,19.3 19,21 L19,21.2 C18.1,21.7 17.1,22 16,22 C14.9,22 13.9,21.7 13,21.2 Z M15,15 C15,14.4 15.4,14 16,14 C16.6,14 17,14.4 17,15 C17,15.6 16.6,16 16,16 C15.4,16 15,15.6 15,15 Z M20.8,19.6 C20.4,18.4 19.6,17.3 18.5,16.7 C18.8,16.2 19,15.6 19,15 C19,13.3 17.7,12 16,12 C14.3,12 13,13.3 13,15 C13,15.6 13.2,16.2 13.5,16.7 C12.4,17.3 11.6,18.4 11.2,19.6 C10.4,18.6 10,17.3 10,16 C10,12.7 12.7,10 16,10 C19.3,10 22,12.7 22,16 C22,17.4 21.5,18.6 20.8,19.6 Z" id="Shape"></path>
        </g>
    </g>
</svg>