<svg width="30" height="30" viewBox="0 0 30 30" fill="none" xmlns="http://www.w3.org/2000/svg">
<path fill-rule="evenodd" clip-rule="evenodd" d="M15 0C6.71573 0 0 6.71573 0 15C0 23.2843 6.71573 30 15 30C23.2843 30 30 23.2843 30 15C30 6.71573 23.2843 0 15 0ZM22.8367 16.5968C22.9449 16.0702 23 15.5299 23 14.9889C23 14.4475 22.9449 13.906 22.8367 13.3806C22.7312 12.8664 22.575 12.3609 22.3703 11.8792C22.1703 11.4049 21.9222 10.9477 21.6324 10.5217C21.3469 10.0981 21.0179 9.70171 20.6566 9.33932C20.2945 8.97887 19.896 8.65162 19.4729 8.3653C19.0456 8.07623 18.5881 7.82853 18.1139 7.62726C17.6306 7.42324 17.1247 7.26684 16.6111 7.16228C16.0837 7.05462 15.5415 7 14.9997 7C14.4575 7 13.9152 7.05462 13.3887 7.16228C12.8742 7.26681 12.3683 7.42321 11.8855 7.62726C11.4112 7.82856 10.9534 8.07623 10.526 8.3653C10.1029 8.65162 9.70449 8.97887 9.34314 9.33932C8.98141 9.70171 8.65247 10.0981 8.36652 10.5217C8.07823 10.9477 7.82976 11.4048 7.62898 11.8792C7.42426 12.3609 7.26763 12.8664 7.16176 13.3806C7.05467 13.906 7 14.4475 7 14.9889C7 15.5299 7.0547 16.0702 7.16173 16.5968C7.2676 17.1109 7.42423 17.6157 7.62895 18.0983C7.82973 18.5722 8.07819 19.029 8.36649 19.455C8.65244 19.8782 8.98138 20.2753 9.34311 20.6373C9.70446 20.9977 10.1029 21.3258 10.526 21.6125C10.9533 21.9004 11.4112 22.1481 11.8854 22.349C12.3683 22.5526 12.8742 22.7086 13.3886 22.8139C13.9152 22.9224 14.4574 22.9778 14.9996 22.9778C15.5414 22.9778 16.0837 22.9224 16.611 22.8139C17.1247 22.7086 17.6306 22.5526 18.1139 22.349C18.5881 22.1481 19.0455 21.9004 19.4729 21.6125C19.896 21.3258 20.2944 20.9977 20.6565 20.6373C21.0179 20.2753 21.3468 19.8782 21.6324 19.455C21.9222 19.029 22.1703 18.5722 22.3703 18.0983C22.575 17.6157 22.7312 17.111 22.8367 16.5968Z" fill="#111212"/>
<path fill-rule="evenodd" clip-rule="evenodd" d="M15 8.16748C16.7298 8.16748 18.3091 8.80991 19.5119 9.869L19.5113 9.86991C19.4791 9.91816 18.5009 11.3811 15.9442 12.3382C14.8079 10.2549 13.563 8.58985 13.4012 8.37349L13.3901 8.35862C13.9062 8.23458 14.4449 8.16748 15 8.16748ZM16.9239 14.3441C16.7821 14.0113 16.6285 13.6802 16.47 13.3549C19.1501 12.2619 20.249 10.6941 20.2757 10.6561L20.276 10.6555C21.2347 11.8175 21.814 13.3018 21.8296 14.9191L21.8215 14.9174C21.6422 14.8801 19.3736 14.4083 17.0716 14.6975C17.0235 14.5805 16.9743 14.4635 16.9239 14.3441ZM21.7452 16.0705C21.4413 17.9718 20.3518 19.6132 18.8177 20.6469C18.7482 20.2358 18.3841 18.2331 17.4879 15.774C19.6931 15.421 21.6045 16.0252 21.7452 16.0705ZM16.2078 16.0901L16.1912 16.0954C16.1816 16.0984 16.172 16.1014 16.1625 16.1049C12.1315 17.5081 10.8151 20.3361 10.8009 20.3669C11.9608 21.2676 13.4155 21.811 15 21.811C15.9461 21.811 16.8473 21.6187 17.6673 21.2704C17.5661 20.6743 17.1692 18.5851 16.2078 16.0901ZM15.1879 13.8003C11.6701 14.8519 8.29454 14.7762 8.17345 14.7716C8.17284 14.7943 8.17208 14.8169 8.17132 14.8393C8.16964 14.8892 8.16797 14.9386 8.16797 14.9892C8.16797 16.7419 8.83011 18.3396 9.91845 19.5478C9.9161 19.5442 11.7858 16.232 15.4727 15.0415C15.5617 15.0119 15.6524 14.9853 15.7422 14.9596C15.5707 14.5719 15.3836 14.1834 15.1879 13.8003ZM8.31445 13.5827C8.75784 11.47 10.1798 9.71698 12.085 8.8186C12.176 8.93995 13.4394 10.652 14.6218 12.7499C11.3761 13.611 8.55449 13.5849 8.32102 13.5828C8.31854 13.5827 8.31635 13.5827 8.31445 13.5827Z" fill="#111212"/>
</svg>
