<svg width="30" height="30" viewBox="0 0 30 30" fill="none" xmlns="http://www.w3.org/2000/svg">
<path fill-rule="evenodd" clip-rule="evenodd" d="M15 0C6.71573 0 0 6.71573 0 15C0 23.2843 6.71573 30 15 30C23.2843 30 30 23.2843 30 15C30 6.71573 23.2843 0 15 0ZM14.5822 12.7112L14.5508 12.1922C14.4563 10.8469 15.2852 9.6182 16.5967 9.14154C17.0794 8.97206 17.8978 8.95087 18.4329 9.09917C18.6427 9.16273 19.0414 9.37458 19.3247 9.56524L19.8388 9.91479L20.4054 9.73472C20.7202 9.63939 21.1398 9.4805 21.3287 9.37458C21.5071 9.27924 21.6645 9.22628 21.6645 9.25806C21.6645 9.43813 21.2762 10.0525 20.951 10.3915C20.5103 10.8681 20.6362 10.9105 21.5281 10.5927C22.0632 10.4126 22.0737 10.4126 21.9687 10.6139C21.9058 10.7198 21.5805 11.0906 21.2343 11.4295C20.6467 12.0121 20.6152 12.0757 20.6152 12.5629C20.6152 13.315 20.2585 14.8827 19.9018 15.7407C19.2408 17.3507 17.8243 19.0138 16.4079 19.8506C14.4144 21.0264 11.7598 21.3229 9.52499 20.6344C8.78005 20.4014 7.5 19.8082 7.5 19.7023C7.5 19.6705 7.88821 19.6281 8.36036 19.6175C9.34663 19.5964 10.3329 19.321 11.1723 18.8337L11.7388 18.4947L11.0883 18.2723C10.165 17.9545 9.33613 17.2236 9.12629 16.5351C9.06334 16.3127 9.08432 16.3021 9.67188 16.3021L10.2804 16.2915L9.76631 16.0479C9.15777 15.7407 8.60168 15.2217 8.32888 14.692C8.12953 14.3107 7.87772 13.3468 7.95116 13.2726C7.97215 13.2408 8.19248 13.3044 8.4443 13.3891C9.16826 13.654 9.26269 13.5904 8.843 13.1455C8.05609 12.3405 7.81477 11.1435 8.19248 10.0101L8.37085 9.50169L9.06334 10.1902C10.4798 11.5778 12.148 12.404 14.0576 12.6477L14.5822 12.7112Z" fill="#111212"/>
</svg>
