<svg width="31" height="30" viewBox="0 0 31 30" fill="none" xmlns="http://www.w3.org/2000/svg">
<path fill-rule="evenodd" clip-rule="evenodd" d="M15.3778 0C6.88598 0 0 6.8854 0 15.3796C0 22.1749 4.4062 27.9399 10.5163 29.9736C11.2848 30.1159 11.5669 29.6399 11.5669 29.2337C11.5669 28.867 11.5527 27.6554 11.5461 26.3703C7.26795 27.3006 6.36522 24.5557 6.36522 24.5557C5.6657 22.778 4.65779 22.3053 4.65779 22.3053C3.26257 21.3507 4.76296 21.3703 4.76296 21.3703C6.30716 21.4786 7.12025 22.9552 7.12025 22.9552C8.49179 25.3065 10.7177 24.6267 11.5952 24.2337C11.7332 23.24 12.1318 22.561 12.5715 22.1772C9.15592 21.7883 5.56536 20.4695 5.56536 14.5764C5.56536 12.8972 6.16608 11.5252 7.14979 10.4482C6.99013 10.0605 6.46377 8.49653 7.29876 6.37806C7.29876 6.37806 8.59009 5.96471 11.5287 7.95456C12.7554 7.61379 14.0709 7.4429 15.3778 7.43704C16.6846 7.4429 18.0012 7.61379 19.2301 7.95456C22.1652 5.96471 23.4547 6.37806 23.4547 6.37806C24.2918 8.49653 23.7652 10.0605 23.6055 10.4482C24.5915 11.5252 25.1881 12.8972 25.1881 14.5764C25.1881 20.4835 21.5907 21.7842 18.1664 22.1649C18.718 22.6422 19.2095 23.5782 19.2095 25.0131C19.2095 27.0707 19.1917 28.7269 19.1917 29.2337C19.1917 29.643 19.4685 30.1226 20.2479 29.9715C26.3547 27.9356 30.7553 22.1726 30.7553 15.3796C30.7553 6.8854 23.8703 0 15.3778 0Z" fill="#111212"/>
<path fill-rule="evenodd" clip-rule="evenodd" d="M5.82395 22.0818C5.79008 22.1584 5.66988 22.1811 5.56038 22.1287C5.44885 22.0785 5.3862 21.9743 5.42236 21.8977C5.45547 21.819 5.57592 21.7973 5.6872 21.8495C5.79899 21.8999 5.86265 22.0051 5.82395 22.0818Z" fill="#111212"/>
<path fill-rule="evenodd" clip-rule="evenodd" d="M6.44727 22.7766C6.37393 22.8446 6.23057 22.813 6.13329 22.7055C6.0327 22.5983 6.01386 22.4549 6.08822 22.3859C6.16385 22.3179 6.30289 22.3497 6.40373 22.4569C6.50431 22.5654 6.52392 22.7078 6.44727 22.7766Z" fill="#111212"/>
<path fill-rule="evenodd" clip-rule="evenodd" d="M7.05358 23.6626C6.95936 23.728 6.8053 23.6666 6.71006 23.5299C6.61584 23.3931 6.61584 23.2291 6.7121 23.1634C6.80759 23.0977 6.95936 23.1568 7.05587 23.2925C7.14984 23.4313 7.14984 23.5956 7.05358 23.6626Z" fill="#111212"/>
<path fill-rule="evenodd" clip-rule="evenodd" d="M7.88405 24.5184C7.79976 24.6113 7.62024 24.5864 7.48884 24.4595C7.35438 24.3355 7.31695 24.1595 7.40149 24.0665C7.4868 23.9733 7.66735 23.9996 7.79976 24.1254C7.9332 24.2491 7.97394 24.4264 7.88405 24.5184Z" fill="#111212"/>
<path fill-rule="evenodd" clip-rule="evenodd" d="M9.02997 25.0151C8.99279 25.1356 8.81988 25.1903 8.6457 25.1391C8.47178 25.0864 8.35795 24.9453 8.39309 24.8236C8.42925 24.7024 8.60292 24.6453 8.77837 24.7001C8.95205 24.7525 9.06613 24.8926 9.02997 25.0151Z" fill="#111212"/>
<path fill-rule="evenodd" clip-rule="evenodd" d="M10.2887 25.1073C10.2931 25.2341 10.1454 25.3393 9.96254 25.3413C9.77868 25.3457 9.62997 25.243 9.62793 25.1182C9.62793 24.9901 9.77232 24.886 9.95617 24.8829C10.139 24.8793 10.2887 24.9812 10.2887 25.1073Z" fill="#111212"/>
<path fill-rule="evenodd" clip-rule="evenodd" d="M11.4594 24.908C11.4813 25.0318 11.3542 25.1589 11.1726 25.1925C10.9941 25.2254 10.8288 25.149 10.8062 25.0262C10.784 24.8994 10.9134 24.7723 11.0916 24.7394C11.2735 24.7078 11.4362 24.7822 11.4594 24.908Z" fill="#111212"/>
</svg>
