<svg width="30" height="30" viewBox="0 0 30 30" fill="none" xmlns="http://www.w3.org/2000/svg">
<path fill-rule="evenodd" clip-rule="evenodd" d="M15 0C6.71573 0 0 6.71573 0 15C0 23.2843 6.71573 30 15 30C23.2843 30 30 23.2843 30 15C30 6.71573 23.2843 0 15 0ZM21.251 9.84333C21.9395 10.0322 22.4816 10.5889 22.6656 11.2958C23 12.5769 23 15.25 23 15.25C23 15.25 23 17.923 22.6656 19.2042C22.4816 19.9111 21.9395 20.4678 21.251 20.6568C20.0034 21 15 21 15 21C15 21 9.99664 21 8.74891 20.6568C8.06045 20.4678 7.51827 19.9111 7.33427 19.2042C7 17.923 7 15.25 7 15.25C7 15.25 7 12.5769 7.33427 11.2958C7.51827 10.5889 8.06045 10.0322 8.74891 9.84333C9.99664 9.5 15 9.5 15 9.5C15 9.5 20.0034 9.5 21.251 9.84333Z" fill="#111212"/>
<path fill-rule="evenodd" clip-rule="evenodd" d="M13.5 18V13L17.5 15.5001L13.5 18Z" fill="#111212"/>
</svg>
