<svg width="30" height="30" viewBox="0 0 30 30" fill="none" xmlns="http://www.w3.org/2000/svg">
<path fill-rule="evenodd" clip-rule="evenodd" d="M15 0C6.71573 0 0 6.71573 0 15C0 23.2843 6.71573 30 15 30C23.2843 30 30 23.2843 30 15C30 6.71573 23.2843 0 15 0ZM21.461 11.6688H17.2239V10.4548H21.461V11.6688ZM21.0875 12.6876C21.5983 12.9122 22.0188 13.2686 22.35 13.7549C22.652 14.1837 22.8457 14.6811 22.9342 15.2463C22.9859 15.5767 23.0066 16.0556 22.9981 16.6783H17.6708C17.7027 17.4013 17.9549 17.909 18.4365 18.1995C18.7281 18.3804 19.079 18.4714 19.4911 18.4714C19.9248 18.4714 20.2794 18.3609 20.5513 18.141C20.7009 18.0213 20.8326 17.8561 20.9455 17.6445H22.8975C22.8457 18.0714 22.6087 18.5066 22.1891 18.9484C21.5344 19.6491 20.6171 19.9999 19.4384 19.9999C18.4647 19.9999 17.6058 19.7048 16.8636 19.1127C16.1176 18.5215 15.7469 17.5582 15.7469 16.2254C15.7469 14.9753 16.0828 14.0166 16.7535 13.3493C17.4262 12.6839 18.2963 12.3489 19.3678 12.3489C20.0047 12.3489 20.5776 12.4621 21.0875 12.6876ZM14.794 12.5281C14.794 11.9499 14.6425 11.4543 14.3406 11.0394C13.8373 10.3638 12.984 10.0176 11.778 10H7V19.7541H11.4553C11.9577 19.7541 12.4224 19.7114 12.8523 19.6232C13.2822 19.5341 13.6538 19.3717 13.969 19.1332C14.2493 18.9253 14.4826 18.6691 14.6689 18.3657C14.9633 17.9072 15.1101 17.3884 15.1101 16.8102C15.1101 16.2497 14.9812 15.7726 14.7253 15.381C14.4666 14.9884 14.0866 14.7016 13.5823 14.5197C13.9144 14.3527 14.1656 14.1671 14.3368 13.9647C14.6425 13.6028 14.794 13.123 14.794 12.5281Z" fill="#111212"/>
<path fill-rule="evenodd" clip-rule="evenodd" d="M8.9707 11.6938V13.8461H11.3752C11.8033 13.8461 12.1523 13.7653 12.4213 13.6038C12.6885 13.4423 12.823 13.1565 12.823 12.7481C12.823 12.2925 12.6462 11.9927 12.2924 11.8461C11.9858 11.7449 11.5963 11.6938 11.1231 11.6938H8.9707ZM18.2277 14.3176C17.9577 14.5923 17.7874 14.9645 17.7178 15.4341H21.0132C20.9784 14.9329 20.8072 14.5542 20.5042 14.2935C20.1976 14.0345 19.8203 13.9055 19.3688 13.9055C18.8796 13.9055 18.4976 14.0429 18.2277 14.3176ZM8.97083 18.0614V15.46H11.4055C11.8288 15.4637 12.159 15.5194 12.3942 15.6252C12.8147 15.8154 13.0235 16.1634 13.0235 16.672C13.0235 17.2716 12.8071 17.6762 12.3735 17.8897C12.1355 18.0038 11.8006 18.0614 11.3716 18.0614H8.97083Z" fill="#111212"/>
</svg>
