<svg width="30" height="30" viewBox="0 0 30 30" fill="none" xmlns="http://www.w3.org/2000/svg">
<path fill-rule="evenodd" clip-rule="evenodd" d="M30 15C30 23.2843 23.2843 30 15 30C6.71573 30 0 23.2843 0 15C0 6.71573 6.71573 0 15 0C23.2843 0 30 6.71573 30 15ZM6.53308 10.1305L7.70698 7H23.747V17.9573L19.0516 22.651H15.5308L13.1843 25H10.8354V22.651H6.53308V10.1305Z" fill="#111212"/>
<path fill-rule="evenodd" clip-rule="evenodd" d="M9.27051 8.56421H22.1819V17.1731L19.4425 19.9126H15.1396L12.7937 22.2584V19.9126H9.27051V8.56421ZM13.5745 16.3912H15.1395V11.696H13.5745V16.3912ZM19.4425 16.3912H17.8777V11.696H19.4425V16.3912Z" fill="#111212"/>
</svg>
