<svg width="30" height="30" viewBox="0 0 30 30" fill="none" xmlns="http://www.w3.org/2000/svg">
<path fill-rule="evenodd" clip-rule="evenodd" d="M15 0C6.71573 0 0 6.71573 0 15C0 23.2843 6.71573 30 15 30C23.2843 30 30 23.2843 30 15C30 6.71573 23.2843 0 15 0ZM22.9496 12.6363C22.9559 12.6523 22.9613 12.6683 22.9772 12.7172C22.9819 12.7346 22.9853 12.753 22.9935 12.7981L22.9942 12.802C22.9981 12.8301 23 12.8591 23 12.8887V17.6113C23 17.6404 22.9981 17.6695 22.9889 17.7271C22.9855 17.746 22.9821 17.7644 22.9666 17.8153C22.9613 17.8312 22.9559 17.8477 22.9346 17.8961C22.9278 17.9112 22.9206 17.9257 22.893 17.9712C22.8842 17.9853 22.875 17.9983 22.8421 18.0405C22.8314 18.0526 22.8203 18.0652 22.7825 18.1025C22.7749 18.1093 22.7672 18.1159 22.7595 18.1223C22.7546 18.1264 22.7497 18.1305 22.7447 18.1345C22.7423 18.1363 22.74 18.1381 22.7374 18.1401C22.7293 18.1463 22.7198 18.1536 22.7036 18.1655L15.6196 22.8881C15.5077 22.9627 15.3788 23 15.25 23C15.1212 23 14.9923 22.9627 14.8804 22.8881L7.79692 18.1655C7.79526 18.1644 7.7937 18.1632 7.78979 18.1602C7.78457 18.1561 7.77516 18.1489 7.75575 18.1345C7.74267 18.1243 7.73008 18.1136 7.69133 18.0763C7.6797 18.0652 7.66856 18.0526 7.63514 18.0114C7.62545 17.9983 7.61625 17.9853 7.58816 17.9407C7.57992 17.9257 7.57266 17.9112 7.55086 17.8642C7.54408 17.8477 7.53875 17.8312 7.52325 17.7828C7.51841 17.7644 7.51502 17.746 7.5063 17.6985C7.50242 17.6695 7.5 17.6404 7.5 17.6113V12.8887C7.5 12.8591 7.50242 12.8301 7.51162 12.7729C7.51502 12.754 7.51841 12.7351 7.53342 12.6847C7.53875 12.6683 7.54408 12.6523 7.56539 12.6039C7.57266 12.5884 7.57992 12.5738 7.60753 12.5288C7.61625 12.5147 7.62545 12.5012 7.65839 12.4595C7.66856 12.4469 7.6797 12.4348 7.71797 12.3975C7.73008 12.3864 7.74267 12.3757 7.75575 12.3655C7.76544 12.3578 7.77513 12.35 7.79692 12.3345L14.8804 7.61189C15.1047 7.4627 15.3958 7.4627 15.6196 7.61189L22.7036 12.3345C22.7055 12.3357 22.7073 12.3372 22.7127 12.3414C22.7183 12.3457 22.7276 12.3528 22.7447 12.3655C22.7573 12.3757 22.7699 12.3864 22.8087 12.4232C22.8203 12.4348 22.8314 12.4469 22.8649 12.4881C22.875 12.5012 22.8842 12.5147 22.9118 12.5598C22.9206 12.5738 22.9278 12.5884 22.9496 12.6363Z" fill="#111212"/>
<path fill-rule="evenodd" clip-rule="evenodd" d="M15.916 9.41064L21.1347 12.8894L18.8039 14.4486L15.916 12.5169V9.41064ZM15.25 16.8254L12.8945 15.2497L15.25 13.6741L17.606 15.2497L15.25 16.8254ZM15.916 17.9827V21.089L21.1347 17.6102L18.8039 16.0515L15.916 17.9827ZM21.668 16.3643L20.0017 15.2498L21.668 14.1353V16.3643ZM9.36536 17.6102L14.584 21.089V17.9827L11.6967 16.0515L9.36536 17.6102ZM8.83203 14.1353L10.4988 15.2498L8.83203 16.3643V14.1353ZM14.584 12.5169V9.41064L9.36536 12.8894L11.6967 14.4486L14.584 12.5169Z" fill="#111212"/>
</svg>
