<svg width="30" height="30" viewBox="0 0 30 30" fill="none" xmlns="http://www.w3.org/2000/svg">
<circle cx="15" cy="15" r="15" fill="black"/>
<path d="M7.93806 23.5735L7.31778 7.04519C7.30793 6.78273 7.40104 6.52682 7.57725 6.33206C7.75345 6.1373 7.99879 6.01911 8.26091 6.00272L22.3195 5.12392C22.4567 5.11532 22.5943 5.13493 22.7237 5.18155C22.853 5.22816 22.9715 5.30079 23.0717 5.39495C23.172 5.48911 23.2518 5.60281 23.3064 5.72903C23.361 5.85526 23.3892 5.99132 23.3891 6.12885V24.1394C23.3891 24.2755 23.3616 24.4101 23.3081 24.5352C23.2546 24.6602 23.1764 24.7732 23.0781 24.8672C22.9797 24.9612 22.8634 25.0343 22.736 25.082C22.6087 25.1298 22.473 25.1513 22.3371 25.1451L8.89899 24.5415C8.64657 24.5302 8.40763 24.4244 8.22961 24.245C8.0516 24.0657 7.94753 23.826 7.93806 23.5735Z" fill="white"/>
<path d="M19.185 7.58334L19.281 5.27371L21.2117 5.12197L21.2948 7.50375C21.2958 7.53234 21.2886 7.56062 21.274 7.58525C21.2594 7.60988 21.2382 7.62984 21.2126 7.64278C21.1871 7.65572 21.1584 7.66111 21.13 7.6583C21.1015 7.6555 21.0744 7.64462 21.0519 7.62694L20.3073 7.0403L19.4257 7.70907C19.4031 7.72625 19.376 7.73663 19.3476 7.739C19.3192 7.74137 19.2908 7.73564 19.2656 7.72246C19.2403 7.70928 19.2194 7.68921 19.2051 7.66458C19.1909 7.63995 19.1839 7.61177 19.185 7.58334V7.58334ZM16.7158 12.6694C16.7158 13.061 19.3542 12.8733 19.7085 12.5982C19.7085 9.93089 18.2771 8.5292 15.6564 8.5292C13.0356 8.5292 11.5672 9.9528 11.5672 12.0878C11.5672 15.8065 16.5858 15.8777 16.5858 17.9061C16.5858 18.4756 16.3069 18.8135 15.6935 18.8135C14.8943 18.8135 14.5783 18.4054 14.6155 17.0176C14.6155 16.7164 11.5672 16.6226 11.4744 17.0176C11.2377 20.3808 13.333 21.3509 15.7309 21.3509C18.0542 21.3509 19.8757 20.1125 19.8757 17.8706C19.8757 13.8849 14.7828 13.9917 14.7828 12.0166C14.7828 11.216 15.3777 11.1093 15.7309 11.1093C16.1024 11.1093 16.7716 11.1748 16.7158 12.6694V12.6694Z" fill="black"/>
</svg>
